<svg width="16" height="16" viewBox="0 0 16 16" fill="none" xmlns="http://www.w3.org/2000/svg">
<mask id="mask0_15_11" style="mask-type:alpha" maskUnits="userSpaceOnUse" x="0" y="0" width="16" height="16">
<rect width="16" height="16" fill="#D9D9D9"/>
</mask>
<g mask="url(#mask0_15_11)">
<path d="M3.33333 14.6667C2.96667 14.6667 2.65278 14.5362 2.39167 14.2751C2.13056 14.014 2 13.7001 2 13.3334V5.33341C2 4.96675 2.13056 4.65286 2.39167 4.39175C2.65278 4.13064 2.96667 4.00008 3.33333 4.00008H4.66667C4.66667 3.07786 4.99167 2.29175 5.64167 1.64175C6.29167 0.991748 7.07778 0.666748 8 0.666748C8.92222 0.666748 9.70833 0.991748 10.3583 1.64175C11.0083 2.29175 11.3333 3.07786 11.3333 4.00008H12.6667C13.0333 4.00008 13.3472 4.13064 13.6083 4.39175C13.8694 4.65286 14 4.96675 14 5.33341V13.3334C14 13.7001 13.8694 14.014 13.6083 14.2751C13.3472 14.5362 13.0333 14.6667 12.6667 14.6667H3.33333ZM3.33333 13.3334H12.6667V5.33341H3.33333V13.3334ZM10.3583 8.35842C11.0083 7.70842 11.3333 6.9223 11.3333 6.00008H10C10 6.55564 9.80556 7.02786 9.41667 7.41675C9.02778 7.80564 8.55556 8.00008 8 8.00008C7.44444 8.00008 6.97222 7.80564 6.58333 7.41675C6.19444 7.02786 6 6.55564 6 6.00008H4.66667C4.66667 6.9223 4.99167 7.70842 5.64167 8.35842C6.29167 9.00842 7.07778 9.33341 8 9.33341C8.92222 9.33341 9.70833 9.00842 10.3583 8.35842ZM6 4.00008H10C10 3.44453 9.80556 2.9723 9.41667 2.58341C9.02778 2.19453 8.55556 2.00008 8 2.00008C7.44444 2.00008 6.97222 2.19453 6.58333 2.58341C6.19444 2.9723 6 3.44453 6 4.00008Z" fill="black"/>
</g>
</svg>
