<svg width="24" height="24" viewBox="0 0 24 24" fill="none" xmlns="http://www.w3.org/2000/svg">
<rect width="24" height="24" rx="12" fill="#FEBD3D"/>
<path d="M8.54403 8.72727H10.0639V13.7983C10.0639 14.267 9.95857 14.6742 9.74787 15.0199C9.53954 15.3655 9.24953 15.6319 8.87784 15.8189C8.50616 16.0059 8.0741 16.0994 7.58168 16.0994C7.1437 16.0994 6.74598 16.0225 6.38849 15.8686C6.03338 15.7124 5.75166 15.4756 5.54332 15.1584C5.33499 14.8388 5.23201 14.4375 5.23438 13.9545H6.76491C6.76965 14.1463 6.80871 14.3108 6.8821 14.4482C6.95786 14.5831 7.06084 14.6873 7.19105 14.7607C7.32363 14.8317 7.47988 14.8672 7.6598 14.8672C7.8492 14.8672 8.009 14.8269 8.1392 14.7464C8.27178 14.6636 8.3724 14.5429 8.44105 14.3842C8.50971 14.2256 8.54403 14.0303 8.54403 13.7983V8.72727ZM11.3352 16V8.72727H12.8729V11.728H15.9943V8.72727H17.5284V16H15.9943V12.9957H12.8729V16H11.3352Z" fill="#FFFDFD"/>
</svg>
